<?xml version="1.0" encoding="utf-8"?>
<!-- Generator: Adobe Illustrator 27.5.0, SVG Export Plug-In . SVG Version: 6.00 Build 0)  -->
<svg version="1.1" xmlns="http://www.w3.org/2000/svg" xmlns:xlink="http://www.w3.org/1999/xlink" x="0px" y="0px"
	 viewBox="0 0 500 500" style="enable-background:new 0 0 500 500;" xml:space="preserve">
<g id="BACKGROUND">
	<g>
		<rect style="fill:#FFFFFF;" width="500" height="500"/>
		<path style="fill:#FFF4CB;" d="M395.827,381.34c51.282-29.522,89.744-84.788,94.108-147.674
			c2.766-39.855-24.212-71.904-62.766-73.868c-35.644-1.815-47.116-48.53-73.634-67.109c-45.147-31.63-111.158-30.382-155.513,2.242
			c-27.711,20.383-40.084,54.19-58.345,82.528c-8.752,13.582-19.208,27.374-33.011,35.742c-17.355,10.521-38.83,10.1-55.879,21.366
			c-29.215,19.304-44.407,66.081-29.547,99.09c27.997,62.189,111.118,7.663,156.202,11.021
			c34.728,2.587,53.656,38.607,85.557,50.332C308.359,411.681,355.966,404.288,395.827,381.34z"/>
		<ellipse style="fill:#2E353D;" cx="250.331" cy="450.948" rx="220.281" ry="9.515"/>
	</g>
</g>
<g id="OBJECTS">
	<g>
		<g>
			<g>
				<path style="fill:#044E36;" d="M129.899,320.087c10.577-27.234,35.409-28.876,41.492-56.667
					c6.083-27.791,4.982-30.803,13.844-44.284c8.861-13.481,17.863-26.462,18.977-49.906c0.648-13.631,3.926-19.245,12.749-29.012
					c8.356-9.25,9.742-23.123,4.463-28.312c-9.564-9.401-22.703,6.63-25.23,21.514c-2.527,14.883-10.702,12.637-22.74,31.68
					c-12.038,19.043-4.477,38.053-16.208,48.714c-11.731,10.661-28.316,15.586-32.179,36.876
					c-3.863,21.289-2.12,54.844-11.733,61.797L129.899,320.087z"/>
				<path style="opacity:0.5;fill:none;stroke:#FFFFFF;stroke-width:1.0096;stroke-miterlimit:10;" d="M208.573,132.08
					c0,0-54.398,114.417-83.258,198.938"/>
			</g>
			<path style="fill:#ACB74E;" d="M99.835,330.278c-6.49-12.941-7.788-38.823-9.735-58.234
				c-1.947-19.411-22.295-15.368-24.012-27.499c-1.947-13.75-1.947-25.882-15.576-35.588c-17.239-12.277-14.278-16.176-25.96-31.544
				c-7.32-9.63-18.172-1.618-7.139,16.985c12.559,21.176,5.192,19.411,14.278,40.44c9.086,21.029,22.715,6.471,19.47,30.735
				c-3.245,24.264,20.768,28.694,26.608,41.249c5.841,12.555,3.894,32.352,3.894,32.352L99.835,330.278z"/>
			<path style="opacity:0.5;fill:none;stroke:#FFFFFF;stroke-width:1.0618;stroke-miterlimit:10;" d="M34.183,208.369
				c31.151,41.94,61.005,110.407,67.495,129.28"/>
			<g>
				<path style="fill:#197A1A;" d="M96.967,329.268c-0.979-18.656-20.443-29.478-20.443-51.314c0-21.836,7.788-32.754,1.947-50.223
					c-5.841-17.469-22.39-28.387-17.523-49.131c4.867-20.744,5.841-38.213-0.973-52.406c-6.814-14.193-19.47-46.947-5.841-55.682
					c13.629-8.734,26.77,12.814,28.231,41.488c1.947,38.213,22.882,41.929,27.257,67.691c3.894,22.928-8.761,31.662-1.947,48.039
					c6.814,16.377,26.648,35.534,21.417,68.783c-2.921,18.561-1.947,49.131-1.947,49.131l-30.178,4.367
					C96.967,350.013,97.941,347.829,96.967,329.268z"/>
				<path style="opacity:0.5;fill:none;stroke:#FFFFFF;stroke-width:1.0834;stroke-miterlimit:10;" d="M63.869,98.878
					c7.788,16.377,42.833,156.703,45.754,231.483"/>
			</g>
			<g>
				<path style="fill:#799D13;" d="M109.96,313.538c-7.477-10.706-14.832-56.539-13.967-68.94c2.22-31.815,16.675-37.229,14.926-69
					s2.402-47.664,15.017-56.391c12.616-8.728,11.748-18.35,23.247-39.449c11.5-21.099,34.91-21.595,29.422,4.229
					c-5.489,25.825-20.186,36.236-18.698,52.731c1.488,16.495-2.539,33.763-9.503,55.618c-6.964,21.855,5.296,35.545-3.79,67.089
					c-8.755,30.394-26.342,69.371-26.342,69.371L109.96,313.538z"/>
				<path style="opacity:0.5;fill:none;stroke:#FFFFFF;stroke-width:1.1421;stroke-miterlimit:10;" d="M115.547,352.249
					c-1.878-151.123,33.618-235.452,33.618-235.452"/>
			</g>
		</g>
		<polygon style="fill:#FFEDDD;" points="129.578,447.507 85.94,447.507 73.504,310.487 142.014,310.487 		"/>
	</g>
	<g>
		<g>
			<g>
				<g>
					<polygon style="fill:#D98A49;" points="338.032,447.648 328.525,447.648 311.555,406.317 337.535,406.317 					"/>
					<polygon style="fill:#AD621E;" points="437.752,447.648 428.244,447.648 407.402,406.317 433.382,406.317 					"/>
					<polygon style="fill:#D98A49;" points="130.537,447.648 121.03,447.648 125.399,406.317 151.379,406.317 					"/>
					<polygon style="fill:#AD621E;" points="211.501,447.648 201.993,447.648 202.491,406.317 228.47,406.317 					"/>
				</g>
				<g>
					<polygon style="fill:#2E353D;" points="337.632,414.427 337.535,406.317 311.555,406.317 314.885,414.427 					"/>
					<polygon style="fill:#2E353D;" points="434.239,414.427 433.382,406.317 407.402,406.317 411.492,414.427 					"/>
					<polygon style="fill:#2E353D;" points="147.289,414.427 151.379,406.317 125.399,406.317 124.542,414.427 					"/>
					<polygon style="fill:#2E353D;" points="225.141,414.427 228.47,406.317 202.491,406.317 202.393,414.427 					"/>
				</g>
				<rect x="116.584" y="393.731" style="fill:#D98A49;" width="234.829" height="17.232"/>
				<rect x="351.092" y="393.348" style="fill:#AD621E;" width="91.872" height="17.615"/>
				<rect x="116.584" y="389.602" style="fill:#2E353D;" width="287.389" height="9.962"/>
				<rect x="351.092" y="389.602" style="fill:#2E353D;" width="91.872" height="9.962"/>
			</g>
			<path style="fill:#FFC942;" d="M477.756,258.27l-9.845,64.084l-77.937,57.547l-170.892-17.71l-6.354-33.495l-5.411-28.581
				l11.346-54.528c3.4-12.187,14.508-20.614,27.154-20.614h204.201c5.796,0,11.12,1.725,15.55,4.679
				C474.603,235.634,479.89,246.642,477.756,258.27z"/>
			<path style="fill:#F38200;" d="M477.756,258.27l-9.845,64.084l-77.937,57.547l-170.892-17.71l-6.354-33.495
				c21.311-1.934,69.011,3.906,131.981-2.721c59.83-6.305,85.649-53.772,92.325-74.634c2.606-8.129,12.985-26.368,28.535-21.689
				C474.603,235.634,479.89,246.642,477.756,258.27z"/>
			<path style="fill:#F38200;" d="M207.316,300.113L207.316,300.113h-90.921l11.036,91.95h57.649h44.472v-69.714
				C229.552,310.068,219.597,300.113,207.316,300.113z"/>
			<g>
				<path style="fill:#F39C00;" d="M445.679,300.113L445.679,300.113H340.561l4.861,91.95h102.236
					c6.324,0,11.668-4.685,12.496-10.955l7.76-58.759C467.915,310.068,457.96,300.113,445.679,300.113z"/>
				<path style="fill:#FFC842;" d="M340.561,300.113c-12.049,0.428-21.425,10.697-21.425,22.754v19.66
					c0,9.237-7.488,16.725-16.725,16.725H156.167c-9.237,0-16.725-7.488-16.725-16.725v-19.659c0-12.057-9.376-22.326-21.425-22.755
					c-12.65-0.45-23.047,9.672-23.047,22.221v51.528c0,10.044,8.142,18.186,18.186,18.186h2.567h23.718h179.694h8.123h18.163
					c10.044,0,18.186-8.142,18.186-18.186v-51.528C363.608,309.784,353.212,299.663,340.561,300.113z"/>
			</g>
		</g>
		<g>
			<path style="fill:#FFAF88;" d="M369.848,232.163c0,6.232-3.116,16.026-5.787,17.807c-2.671,1.781-11.735,3.041-11.735,3.041
				s-11.273,16.087-1.924,24.545c9.349,8.458,16.493,8.458,32.802,1.795c11.835-4.835,23.979-13.115,22.258-20.478
				c-1.282-5.489-17.361-6.813-18.697-12.601s0-17.225,0-17.225L369.848,232.163z"/>
			<path style="fill:#2E353D;" d="M383.101,243.969c1.079-0.529,2.127-1.097,3.154-1.691c-0.345-5.895,0.51-13.231,0.51-13.231
				l-16.916,3.116c0,5.335-2.206,11.861-4.539,15.155C368.164,248.587,377.305,246.814,383.101,243.969z"/>
			<g>
				<path style="fill:#FFAF88;" d="M358.323,192.484c-8.31,8.584-10.246,22.156-9.021,26.328c1.225,4.172,1.4,8.156,2.471,13.197
					c1.071,5.041,2.851,8.997,6.667,13.644c3.816,4.647,11.54,1.58,18.02-2.793c6.48-4.374,10.776-11.117,12.827-16.661
					c2.05-5.545,2.165-9.229,2.837-18.077C392.796,199.273,366.16,184.389,358.323,192.484z"/>
				<path style="fill:#2E353D;" d="M382.903,226.412c0.719,0.962,2.705,6.951-0.466,13.717c-1.113,2.374,3.654-3.034,3.654-3.034
					s4.02-3.049,9.767-8.716c5.746-5.667,4.259-15.62,1.751-22.671c-2.508-7.05,2.254-14.592,2.254-14.592l-9.601-6.039
					c0,0-6.642,1.922-15.128,1.337c-1.561-0.108-4.363,1.79-6.02,1.486c-4.918-0.905-8.564,1.48-12.793,2.115
					c-5.185,0.778-6.96,5.631-8.053,9.656c-2.098,7.731,1.098,11.886,1.098,11.886s0.751-1.451,1.533-3.701
					c0.85-2.444,4.877-3.179,4.877-3.179c3.355,2.697,7.961,0.526,10.658,1.962c2.945,1.567,3.864,4.136,6.003,5.11
					c2.767,1.259,4.139,5.345,4.712,7.726c1.423,5.908,2.467,2.055,4.276,4.127S382.394,225.73,382.903,226.412z"/>
				<g>
					<g>
						<path style="fill:#FFAF88;" d="M380.396,214.684c0.904-1.379,4.957-2.566,6.166,2.348c1.008,4.095-0.782,5.475-2.866,9.706
							c-1.414,2.871-4.262,2.131-4.262,2.131S378.447,217.656,380.396,214.684z"/>
					</g>
					<path style="fill:#C47755;" d="M381.727,216.839c0.897-1.633,2.353-0.798,3.111,0.545c0.758,1.343-0.348,3.34-0.348,3.34
						s0.43-2.674-0.735-3.206c-1.165-0.532-3.589,1.695-2.453,3.38c1.136,1.686,2.489,1.687,1.769,2.706
						c-0.719,1.019,0.32,1.905-1.044,2.496c-1.364,0.592-0.79-0.24-1.142-2.395c-0.351-2.154-0.083,0.01-0.185-2.175
						C380.6,219.345,380.955,218.243,381.727,216.839z"/>
				</g>
				<g>
					<path style="fill:#152035;" d="M370.275,218.107c0,0-3.251-1.029-4.926-1.059c-1.675-0.03-2.714,0.564-3.087,0.106
						c-0.373-0.457,0.818-1.175,2.646-1.27C366.734,215.79,369.184,216.458,370.275,218.107z"/>
					<g>
						<path style="fill:#FFFFFF;" d="M359.832,238.641c-0.507-0.129-1.664-0.223-1.836-1.313c-0.172-1.09-0.172-1.09-0.172-1.09
							s3.385-0.23,4.905-0.523c1.521-0.293,3.197-0.978,3.197-0.978s-1.557,2.042-3.067,2.869
							C361.348,238.433,359.832,238.641,359.832,238.641z"/>
						<path style="fill:#FF2842;" d="M366.366,234.504c0.271-0.47-1.68,0.262-3.081,0.29c-1.145,0.023-2.594-0.187-3.203-0.176
							c-1.354,0.025-1.525,0.231-2.109,0.065c-0.986-0.281-0.934,0.736-0.728,1.158c0.231,0.475,0.481,0.493,1.421,0.582
							c0.94,0.089,2.268,0.122,3.66-0.181C363.718,235.938,366.366,234.504,366.366,234.504z"/>
						<path style="fill:#FF2842;" d="M357.995,237.328c0,0-0.301,0.287-0.208,0.746c0.095,0.469,0.233,1.159,1.404,1.413
							c1.609,0.349,3.807-0.087,4.799-1.23c0.992-1.144,2.376-3.753,2.376-3.753s-0.594,0.408-1.714,1.4
							c-1.31,1.161-2.872,1.865-4.163,1.822C358.544,237.661,357.995,237.328,357.995,237.328z"/>
					</g>
					<path style="fill:none;stroke:#C47755;stroke-miterlimit:10;" d="M357.315,220.428c0.16,3.931-0.349,5.278-1.155,7.713
						c-0.806,2.435-0.761,2.906,0.715,3.056c1.476,0.15,2.612-0.015,2.612-0.015"/>
					<path style="fill:#152035;" d="M363.123,221.071c-0.063,0.62,0.293,1.164,0.796,1.215c0.503,0.051,0.961-0.41,1.024-1.03
						c0.063-0.62-0.293-1.164-0.796-1.215C363.644,219.99,363.185,220.451,363.123,221.071z"/>
					<path style="fill:#152035;" d="M351.045,217.274c0,0,1.862-0.51,2.744-0.281c0.882,0.229,1.334,0.974,1.601,0.582
						c0.266-0.392-0.247-1.283-1.19-1.659C353.258,215.541,351.872,215.82,351.045,217.274z"/>
					<path style="fill:#152035;" d="M352.007,221.062c-0.063,0.62,0.294,1.164,0.796,1.215c0.503,0.051,0.961-0.41,1.024-1.03
						c0.063-0.62-0.293-1.164-0.796-1.215C352.529,219.981,352.07,220.442,352.007,221.062z"/>
				</g>
				<path style="fill:#2E353D;" d="M378.667,186.507c1.271-1.167,1.802-0.414,1.77-2.398c-0.033-2.086,1.589-4.102,2.972-4.127
					c0,0,2.108-2.262,5.101-3.034c7.117-1.836,8.213,3.499,8.213,3.499s1.967-0.512,3.736,0.244
					c3.086,1.319,7.614,4.482,6.381,10.585c-0.501,2.48-1.507,4.8-2.873,6.884c-1.366,2.085-2.575,1.534-2.575,1.534
					s0.824,2.046-0.638,3.388s-4.398-1.982-5.9-0.811c-1.502,1.171-6.799-2.684-6.799-2.684L378.667,186.507z"/>
				<path style="fill:#CF1D42;" d="M397.508,207.021c0,0,0.302-0.515,0.249-2.497c-0.041-1.522,2.212-0.296,1.435-1.748
					c-1.789-3.344-13.455-15.297-16.817-17.04c-2.643-1.37-2.494-0.829-4.862,1.013
					C377.513,186.749,391.527,196.553,397.508,207.021z"/>
				<path style="fill:#2E353D;" d="M364.3,205.507c3.65,0.631,4.06,2.846,3.634,5.373c-0.426,2.527,0.495,4.999,2.967,6.414
					c0,0-6.177-1.7-5.082-6.032c1.094-4.332-3.23-5.568-3.23-5.568L364.3,205.507z"/>
				<path style="fill:#2E353D;" d="M381.959,229.861c-0.037,2.775-1.358,5.356-3.627,6.952c-0.235,0.165-0.495-0.198-0.259-0.365
					c3.206-2.265,4.453-6.864,2.496-10.354c-1.842-3.284-5.658-4.834-7.56-8.134c-2.87-4.98-2.314-11.531,1.413-15.901
					c0.22-0.258,0.629,0.073,0.409,0.334c-2.407,2.859-3.416,6.598-2.967,10.298c0.513,4.231,2.867,6.971,5.984,9.649
					C380.201,224.362,382.002,226.623,381.959,229.861z"/>
				<path style="fill:#2E353D;" d="M402.108,212.772c-0.77-3.367-5.19-4.522-6.706-7.507c-0.129-0.254-0.555-0.071-0.428,0.182
					c1.261,2.508,4.28,3.594,5.894,5.844c2.893,4.035-1.913,7.436-5.063,9.533c-0.301,0.201,0.088,0.579,0.388,0.396
					C399.238,219.363,402.973,216.554,402.108,212.772z"/>
				<path style="fill:#2E353D;" d="M400.871,178.645c-1.684-2.414-5.322-2.604-7.464-0.738c-0.21,0.182,0.075,0.508,0.285,0.325
					c2.004-1.745,5.495-1.465,6.909,0.929c1.267,2.146,0.324,5.077-1.793,6.262c-0.31,0.173-0.069,0.674,0.241,0.498
					C401.515,184.524,402.552,181.054,400.871,178.645z"/>
				<path style="fill:#2E353D;" d="M400.482,188.701c-3.29,4.173-9.679,2.16-10.2-3.054c-0.038-0.376-0.608-0.26-0.574,0.111
					c0.543,5.886,7.712,7.876,11.355,3.326C401.341,188.736,400.758,188.35,400.482,188.701z"/>
				<path style="fill:#2E353D;" d="M402.507,197.137c0.89,0.993,2.257,2.366,2.195,3.811c-0.093,2.158-1.619,2.743-3.441,2.847
					c-1.634,0.093-3.274,0.045-4.536,1.261c-2.294,2.211-1.313,5.742,1.512,6.879c0.319,0.129,0.543-0.358,0.222-0.489
					c-3.497-1.432-2.979-6.342,0.8-6.928c1.478-0.229,3.151,0.135,4.523-0.602c3.127-1.681,0.898-5.339-0.728-7.163
					C402.769,196.432,402.22,196.817,402.507,197.137z"/>
				<path style="fill:#2E353D;" d="M403.345,196.988c-0.103-0.283-0.564-0.177-0.461,0.111c1.415,3.954-0.271,8.388-3.98,10.38
					c-0.31,0.167-0.05,0.65,0.261,0.482C403.06,205.855,404.864,201.155,403.345,196.988z"/>
				<path style="fill:#2E353D;" d="M385.773,178.965c-7.486-0.269-11.064,7.146-9.877,13.716c0.075,0.413,0.72,0.312,0.644-0.101
					c-1.13-6.158,2.067-13.337,9.187-13.158C386.02,179.428,386.069,178.975,385.773,178.965z"/>
				<path style="fill:#2E353D;" d="M407.257,184.137c-3.396-4.431-9.298,0.503-12.903,1.773c-0.341,0.12-0.112,0.633,0.227,0.514
					c3.495-1.229,7.063-4.716,10.872-2.864c5.449,2.65,0.366,8.692-2.387,11.202c-0.22,0.201,0.071,0.561,0.294,0.36
					C406.189,192.571,410.304,188.112,407.257,184.137z"/>
				<path style="fill:#2E353D;" d="M381.571,188.593c-3.577-2.734-7.822-5.89-12.621-4.821c-3.629,0.809-5.888,4.097-5.976,7.707
					c-0.01,0.399,0.606,0.468,0.623,0.063c0.169-4.179,3.238-7.314,7.467-7.294c3.93,0.019,7.232,2.451,10.235,4.729
					C381.54,189.16,381.812,188.777,381.571,188.593z"/>
				<path style="fill:#2E353D;" d="M396.747,190.285c-0.369-0.363-1.002,0.147-0.63,0.514c2.535,2.497-0.927,7.152-2.573,9.385
					c-1.556,2.11-3.403,3.952-5.446,5.589c-0.367,0.294,0.091,0.853,0.461,0.565c3.011-2.344,5.567-5.16,7.472-8.479
					C397.354,195.553,399.02,192.524,396.747,190.285z"/>
				<path style="fill:#2E353D;" d="M394.645,185.077c-11.823-0.643-16.016,12.294-18.082,21.546
					c-0.083,0.371,0.564,0.527,0.655,0.152c2.126-8.778,6.007-21.494,17.345-20.877
					C395.091,185.928,395.177,185.106,394.645,185.077z"/>
				<path style="fill:#2E353D;" d="M392.803,188.009c-0.33-0.154-0.655-0.285-0.999-0.405c-0.446-0.155-0.706,0.533-0.257,0.689
					c0.345,0.119,0.682,0.218,1.038,0.302C392.971,188.686,393.176,188.183,392.803,188.009z"/>
				<path style="fill:#2E353D;" d="M394.647,192.834c-0.007-0.316-0.5-0.37-0.494-0.05c0.058,3.085-1.192,5.87-3.562,7.855
					c-0.261,0.218,0.074,0.63,0.335,0.41C393.376,198.981,394.719,196.044,394.647,192.834z"/>
				<path style="fill:#2E353D;" d="M348.446,222.44c-0.842-4.752-3.454-13.225,1.814-15.948c0.218-0.113,0.089-0.538-0.127-0.427
					c-3.261,1.675-3.888,6.579-3.355,10.462c0.687,5.011,3.517,12.122-0.766,16.283c-0.249,0.242,0.025,0.702,0.273,0.463
					C348.999,230.662,349.105,226.159,348.446,222.44z"/>
			</g>
			<path style="fill:#FFAF88;" d="M332.671,264.714c-3.901,3.751-16.525,21.301-20.014,25.741
				c-3.489,4.44-11.286,12.614-11.286,12.614s-12.502-1.83-19.163-2.464c-6.661-0.634-26.96-6.026-26.96-6.026l0.317,6.978
				c0,0,26.643,12.053,35.207,15.225c8.564,3.172,16.493,3.806,18.714,2.855c2.22-0.952,17.128-17.762,21.885-21.885
				c4.758-4.123,16.176-11.736,16.176-11.736L332.671,264.714z"/>
			<path style="fill:#2E353D;" d="M332.671,264.714c-0.353,0.34-0.78,0.796-1.263,1.342c0.887,7.384,1.425,14.786-0.371,22.078
				c-2.881,11.699-13.302,22.554-25.334,24.693c-7.824,1.391-16.007,1.151-24.106,0.211c3.727,1.587,7.022,2.946,9.175,3.743
				c8.564,3.172,16.493,3.806,18.714,2.855c2.22-0.952,17.128-17.762,21.885-21.885c4.758-4.123,16.176-11.736,16.176-11.736
				L332.671,264.714z"/>
			<path style="fill:#EB3B3B;" d="M349.325,253.161c-11.706,3.18-19.553,12.383-19.553,12.383s10.573,19.031,12.687,29.181
				c2.115,10.15,9.304,5.075,9.304,5.075l9.727-13.11L349.325,253.161z"/>
			<path style="fill:#2E353D;" d="M341.296,287.669c4.982-5.022,9.939-9.999,15.233-14.653l-5.981-16.485
				c-5.035,6.044-11.148,10.704-17.83,14.568c2.375,4.628,5.661,11.389,7.834,17.308
				C340.801,288.163,341.05,287.917,341.296,287.669z"/>
			<path style="fill:#FF4A4A;" d="M401.339,291.525c-1.82,5.88-3.83,11.78-5.87,17.01c-1.23,3.16-2.47,6.08-3.69,8.61
				c-8.92,18.47-22.66,49.75-22.66,49.75s-23.13-8.52-28.87-19.98c-5.73-11.47-27.9-19.33-31.08-23.79c0,0,17.65-16.35,18.92-25.9
				c1.28-9.56,2.71-17.85,10.15-24.53c8.71-7.81,11.09-19.53,11.09-19.53l6.15-0.98c-1.91,9.55-1.91,14.65,10.19,17.19
				c12.1,2.55,24.84-6.37,29.93-16.56c0,0,10.19,3.83,12.74,5.1C409.959,258.725,406.419,275.025,401.339,291.525z"/>
			<path style="fill:#2E353D;" d="M400.833,292.992c-1.82,5.88-3.325,10.313-5.365,15.543c-0.3-9.49-1.55-6.294-1.19-15.754
				c0.41-10.65,2.489-19.448,2.749-20.088C396.877,273.543,393.855,285.803,400.833,292.992z"/>
		</g>
		<g>
			<path style="fill:#FFFFFF;" d="M253.689,258.819c0,0-2.586-3.305-10.593-2.833l-0.204,3.565l12.984,21.12l1.537-16.637
				L253.689,258.819z"/>
			<path style="fill:#FFFFFF;" d="M256.219,257.526c0,0,20.4-7.433,35.434-7.031l14.379,53.215c0,0-1.467,6.274-2.257,4.507
				c-0.79-1.767-30.852-27.869-30.852-27.869l-18.841-17.54l-0.395-3.988L256.219,257.526z"/>
			<g>
				<path style="fill:#EB3B3B;" d="M254.084,262.808c0,0-7.782-2.794-11.192-3.257l12.31,50.221c0,0,7.811,0.652,11.089,3.136
					l0.739-7.64L254.084,262.808z"/>
				<polygon style="fill:#FF4A4A;" points="270.139,301.401 269.597,312.079 266.291,312.908 254.084,262.808 256.839,262.117 				
					"/>
				<path style="fill:#FF4A4A;" d="M256.839,262.117c0,0,8.814-4.553,17.354-6.695c8.54-2.142,16.896-0.173,16.896-0.173
					l12.687,52.969c0,0-28.327,0.344-34.18,3.862L256.839,262.117z"/>
			</g>
			<path style="fill:#FFAF88;" d="M251.445,302.98c-0.855-3.084,0.179-7.176,0.569-11.286c0.39-4.11,0.519-6.263,2.075-6.585
				c1.556-0.323,1.489,1.501,1.425,2.577c0,0-0.255-3.38,1.333-4.241c1.588-0.861,2.304-0.319,2.644,0.594
				c0.34,0.913-0.814,12.601-0.814,12.601s2.243-3.834,3.152-6.521c0.908-2.688,1.929-3.79,3.168-3.321
				c1.239,0.469,0.011,4.695-0.566,6.696c-0.576,2.001-2.639,5.596-2.639,5.596s2.854-3.278,3.622-4.665
				c0.768-1.387,1.339-1.893,2.205-1.8c0.867,0.093,1.157,2.188-0.801,5.768c-1.958,3.581-2.881,6.164-3.172,7.912
				c-0.291,1.748-7.778,11.646-7.778,11.646L251.445,302.98z"/>
		</g>
		<g>
			<path style="fill:#2E353D;" d="M166.119,345.045c-6.067,3.316,12.266,21.533,24.107,28.3c11.841,6.766,7.612-8.881,0.846-19.454
				C184.305,343.318,169.923,342.966,166.119,345.045z"/>
			<path style="fill:#FFAF88;" d="M193.97,334.749c-7.709,9.636-32.884,49.506-40.111,54.204
				c-7.227,4.698-17.707,8.673-23.488,12.286c-5.782,3.614-9.034,8.311-15.539,7.227s-10.841,0-8.673,3.975
				c2.168,3.975,9.034,2.168,13.732,3.252c4.698,1.084,20.597-0.361,26.741-0.723c6.143-0.361,18.068,3.252,21.32-2.529
				c3.252-5.782,0.723-17.707,4.336-23.127c3.614-5.42,37.581-33.607,48.061-46.254L193.97,334.749z"/>
			<path style="fill:#2E353D;" d="M193.97,334.749c-2.799,3.499-7.903,10.987-13.612,19.327c4.333,5.246,7.379,11.767,9.463,18.18
				c0.017,0.051,0.032,0.104,0.048,0.155c11.193-10.146,24.571-22.218,30.48-29.351L193.97,334.749z"/>
			<path style="fill:#FDFDFD;" d="M369.119,350.515c0,0-0.53,7.65-1.53,8.72h-86.98c-22.36-14.32-49.28-32.9-49.28-32.9
				l-35.16,40.82c0,0-6.62-5.29-13.86-10.78c-6.17-4.68-12.8-9.5-16.19-11.33c0,0,26.08-24.95,34.59-34.02
				c8.5-9.08,16.44-17.58,20.98-21.55c4.53-3.97,12.47-3.4,26.08,3.97c13.61,7.37,60.67,30.05,60.67,30.05
				S357.429,344.825,369.119,350.515z"/>
			<path style="fill:#2E353D;" d="M311.629,359.235h-31.02c-22.36-14.32-49.28-32.9-49.28-32.9l-35.16,40.82
				c0,0-6.62-5.29-13.86-10.78c5.89-8.33,16.388-20.66,27.58-33.57c13.747-15.857,15.082-19.448,20.513-15.857
				c7.921,5.238,18.604,14.799,30.664,22.419C268.326,333.957,291.889,350.495,311.629,359.235z"/>
			<path style="fill:#2E353D;" d="M220.041,372.499c0.634,5.075-13.744,0.846-21.357-2.537c-7.612-3.383-12.347-8.917-8.922-12.282
				c3.424-3.365,16.436-7.014,22.878-1.251C219.082,362.192,220.041,372.499,220.041,372.499z"/>
			<path style="fill:#FFAF88;" d="M189.762,357.679c0,0-5.103,26.084-8.505,39.125c-3.402,13.042-10.877,31.453-18.145,35.723
				c-1.927,1.132-8.143,6.971-10.591,7.348c-2.449,0.377-8.476,1.318-10.924,3.202c-2.449,1.883-1.318,4.897,0.565,4.897
				c1.884,0,9.418,0,18.082,0c8.664,0,18.459,0.565,20.907-0.188c2.449-0.753,4.709-7.346,4.897-10.171
				c0.188-2.825,3.39-4.332,3.014-9.418c-0.377-5.086-2.637-12.808,4.52-22.226c7.158-9.418,21.472-36.164,25.804-48.407
				C223.717,345.322,189.762,357.679,189.762,357.679z"/>
			<path style="fill:#2E353D;" d="M209.253,379.581c4.342-8.34,8.215-16.598,10.132-22.016c4.007-11.325-24.726-1.608-29.061-0.086
				C198.114,363.796,204.319,371.275,209.253,379.581z"/>
			<path style="fill:#FDFDFD;" d="M282.189,359.385l-47.58,1.08l-2.32,0.05l-6.96-8.74l-5.29,20.72c0,0,0-0.02-0.02-0.05
				c-0.24-0.46-2.37-4.31-9.28-9.1c-7.37-5.1-20.98-5.67-20.98-5.67s9.64-27.21,14.18-36.85c4.54-9.64,7.22-18.89,18.14-18.15
				C228.919,303.145,282.189,359.385,282.189,359.385z"/>
		</g>
		<g>
			<line style="fill:none;stroke:#FFFFFF;stroke-miterlimit:10;" x1="383.288" y1="209.446" x2="382.175" y2="202.708"/>
			<line style="fill:none;stroke:#FFFFFF;stroke-miterlimit:10;" x1="377.513" y1="204.048" x2="378.883" y2="211.184"/>
			<path style="fill:#FF4A4A;" d="M388.972,218.813c0,4.345-5.426,9.739-5.426,9.739h-2.783c-4.534,0-8.209-4.36-8.209-9.739
				c0-5.379,3.675-9.739,8.209-9.739c1.133,0,2.783,0,2.783,0C386.492,210.552,388.972,214.779,388.972,218.813z"/>
			<ellipse style="fill:#CF1D42;" cx="383.546" cy="218.813" rx="8.209" ry="9.739"/>
			<ellipse style="fill:#FF4A4A;" cx="384.022" cy="218.575" rx="7.051" ry="8.365"/>
			<g>
				<path style="fill:#FFBCB2;" d="M390.128,218.813c0,2.763-1.952,5.002-4.361,5.002c-2.408,0-4.361-2.239-4.361-5.002
					s1.952-5.002,4.361-5.002C388.175,213.811,390.128,216.05,390.128,218.813z"/>
				<path style="fill:#FFFFFF;" d="M390.811,218.813c0,2.484-1.756,4.498-3.921,4.498s-3.922-2.014-3.922-4.498
					c0-2.484,1.756-4.498,3.922-4.498S390.811,216.329,390.811,218.813z"/>
			</g>
			<path style="fill:#CF1D42;" d="M355.952,190.147c0,0,9.624-2.49,14.443,3.097c4.562,5.289,5.466,11.358,5.466,11.358l7.269-1.712
				l1.14-0.724c0,0-3.687-6.407-6.088-9.696c-4.185-5.732-10.019-5.336-10.019-5.336s-9.745,0.863-12.687,2.062L355.952,190.147z"/>
			<path style="fill:#FF4A4A;" d="M355.477,189.195c0,0,2.431-0.785,5.868-0.634c3.493,0.153,7.324,0.99,9.753,3.806
				c4.562,5.289,6.006,11.31,6.006,11.31l7.166-1.511c0,0-2.296-7.012-4.697-10.301c-4.185-5.732-11.251-5.683-11.251-5.683
				S357.168,187.292,355.477,189.195z"/>
		</g>
		<g>
			<path style="fill:#F38200;" d="M445.679,300.113L445.679,300.113H340.561l4.861,91.95h102.236
				c6.324,0,11.668-4.685,12.496-10.955l7.76-58.759C467.915,310.068,457.96,300.113,445.679,300.113z"/>
			<path style="fill:#F38200;" d="M445.679,298.913H411.9c12.281,0,22.236,10.085,22.236,22.526l-7.76,59.526
				c-0.828,6.351-6.173,11.098-12.496,11.098h33.779c6.324,0,11.668-4.746,12.496-11.098l7.76-59.526
				C467.915,308.998,457.96,298.913,445.679,298.913z"/>
			<path style="fill:#FFC842;" d="M340.561,300.113c-12.049,0.428-21.425,10.697-21.425,22.754v19.66
				c0,9.237-7.488,16.725-16.725,16.725h-19.524v32.797h62.535c10.044,0,18.186-8.142,18.186-18.186v-51.528
				C363.608,309.784,353.212,299.663,340.561,300.113z"/>
		</g>
		<path style="fill:#2E353D;" d="M408.023,282.842c-5.443,1.867-7.401,11.63-4.335,16.176c3.066,4.546,12.793,2.432,17.445-4.335
			C425.785,287.917,418.807,279.142,408.023,282.842z"/>
		<path style="fill:#FFAF88;" d="M430.33,313.866c-0.666-6.225-4.456-23.648-10.787-36.099l-18.327,11.468
			c0,0,11.58,21.318,11.247,24.267c-0.333,2.949-4.74,13.491-9.48,24.795c-4.509,10.751-9.99,19.898-11.984,23.1
			c-1.908,0.284-4.109,0.983-5.755,1.793c-2.051,1.008-3.836,2.306-5.144,4.191c-1.088,1.568-1.987,2.745-2.026,4.172
			c-0.018,0.686,0.782,1.02,1.754,0.959c1.017-0.064,1.559-1.026,2.674-2.066c0.912-0.851,1.606-0.848,2.403-0.984
			c-1.097,1.198-1.88,2.468-2.409,3.274c-0.727,1.107-3.702,3.941-5.265,5.323c-1.98,1.749-3.266,1.959-3.71,3.671
			c-0.444,1.712,2.312,0.927,3.077,0.167c0.766-0.76,3.157-2.166,4.904-3.673c0.728-0.628,1.432-1.114,2.118-1.541
			c-0.743,1.078-1.695,2.271-2.884,3.396c-2.442,2.312-3.934,4.096-4.688,4.63c-1.79,1.269-2.087,2.835-1.2,3.156
			c0.887,0.321,0.887,0.321,5.049-2.947c0.533-0.419,2.356-1.876,3.729-2.985c1.813-1.463,3.192-2.582,3.192-2.582
			s-1.688,1.874-2.805,3.186c-2.533,2.974-3.226,3.644-3.672,4.208c-0.86,1.087-1.479,2.181-0.538,2.584
			c0.713,0.305,2.018-0.206,3.204-1.501c0.942-1.028,1.895-1.902,4.577-4.346c1.513-1.379,2.759-1.886,2.759-1.886
			s-0.388,0.275-1.278,1.832c-0.89,1.557-1.365,1.829-2.512,2.852c-1.075,0.959-1.616,1.531-0.911,2.284
			c0.862,0.921,1.732-0.194,2.546-0.78c1.171-0.843,5.573-4.236,6.765-6.309c1.168-2.032,1.999-2.953,3.301-5.155
			c0.303-0.513,1.092-6.144,3.878-11.031C411.309,349.199,430.831,318.55,430.33,313.866z"/>
		<path style="fill:#2E353D;" d="M421.978,289.286c0.716-0.655,1.436-1.305,2.165-1.943c-1.477-3.25-3.037-6.503-4.599-9.576
			l-18.327,11.468c0,0,2.757,6.569,5.101,12.825C411.137,297.386,416.372,293.124,421.978,289.286z"/>
		<path style="fill:#FF4A4A;" d="M403.688,299.019c0.106-5.181,11.702-10.758,20.617-15.225c-0.49-1.551-8.881-20.934-15.965-25.88
			c0,0-13.215,24.823-11.101,28.629C398.495,288.804,400.936,292.466,403.688,299.019z"/>
		<path style="fill:#2E353D;" d="M225.329,351.775l-5.29,20.72c0,0,0-0.02-0.02-0.05c-0.27-1.03,3.511-37.268,3.511-37.268
			L225.329,351.775z"/>
	</g>
	<text transform="matrix(1 0 0 1 330.9342 86.4872)"><tspan x="0" y="0" style="fill:#FF4A4A; font-family:'PoetsenOne-Regular'; font-size:22.5906px;">TAKE TIME</tspan><tspan x="-40.392" y="27.109" style="fill:#FF4A4A; font-family:'PoetsenOne-Regular'; font-size:22.5906px;">FOR YOURSELF</tspan></text>
</g>
</svg>
